<svg id="visual" viewBox="0 0 900 600" width="900" height="600" xmlns="http://www.w3.org/2000/svg" xmlns:xlink="http://www.w3.org/1999/xlink" version="1.1"><rect x="0" y="0" width="900" height="600" fill="#001220"></rect><defs><linearGradient id="grad1_0" x1="33.3%" y1="0%" x2="100%" y2="100%"><stop offset="20%" stop-color="#001220" stop-opacity="1"></stop><stop offset="80%" stop-color="#001220" stop-opacity="1"></stop></linearGradient></defs><defs><linearGradient id="grad2_0" x1="0%" y1="0%" x2="66.7%" y2="100%"><stop offset="20%" stop-color="#001220" stop-opacity="1"></stop><stop offset="80%" stop-color="#001220" stop-opacity="1"></stop></linearGradient></defs><g transform="translate(900, 0)"><path d="M0 351.5C-33.2 316.5 -66.4 281.5 -111.7 269.8C-157.1 258 -214.5 269.6 -248.6 248.6C-282.7 227.5 -293.5 173.9 -306.7 127.1C-320 80.2 -335.8 40.1 -351.5 0L0 0Z" fill="#F7770F"></path></g><g transform="translate(0, 600)"><path d="M0 -351.5C36.1 -316.1 72.2 -280.7 107.9 -260.5C143.6 -240.3 178.9 -235.3 218.5 -218.5C258.1 -201.6 301.9 -172.9 324.8 -134.5C347.7 -96.1 349.6 -48.1 351.5 0L0 0Z" fill="#F7770F"></path></g></svg>