<svg id="visual" viewBox="0 0 450 900" width="450" height="900" xmlns="http://www.w3.org/2000/svg" xmlns:xlink="http://www.w3.org/1999/xlink" version="1.1"><rect x="0" y="0" width="450" height="900" fill="#000000"></rect><path d="M371 900L368 900L368 861L349 861L349 822L358 822L358 783L371 783L371 743L344 743L344 704L361 704L361 665L349 665L349 626L360 626L360 587L354 587L354 548L356 548L356 509L367 509L367 470L345 470L345 430L362 430L362 391L369 391L369 352L356 352L356 313L360 313L360 274L364 274L364 235L356 235L356 196L350 196L350 157L351 157L351 117L364 117L364 78L342 78L342 39L342 39L342 0L450 0L450 39L450 39L450 78L450 78L450 117L450 117L450 157L450 157L450 196L450 196L450 235L450 235L450 274L450 274L450 313L450 313L450 352L450 352L450 391L450 391L450 430L450 430L450 470L450 470L450 509L450 509L450 548L450 548L450 587L450 587L450 626L450 626L450 665L450 665L450 704L450 704L450 743L450 743L450 783L450 783L450 822L450 822L450 861L450 861L450 900L450 900Z" fill="#4fb949"></path><path d="M367 900L383 900L383 861L371 861L371 822L379 822L379 783L368 783L368 743L392 743L392 704L366 704L366 665L381 665L381 626L365 626L365 587L387 587L387 548L387 548L387 509L373 509L373 470L387 470L387 430L371 430L371 391L389 391L389 352L370 352L370 313L377 313L377 274L381 274L381 235L388 235L388 196L372 196L372 157L377 157L377 117L367 117L367 78L380 78L380 39L379 39L379 0L450 0L450 39L450 39L450 78L450 78L450 117L450 117L450 157L450 157L450 196L450 196L450 235L450 235L450 274L450 274L450 313L450 313L450 352L450 352L450 391L450 391L450 430L450 430L450 470L450 470L450 509L450 509L450 548L450 548L450 587L450 587L450 626L450 626L450 665L450 665L450 704L450 704L450 743L450 743L450 783L450 783L450 822L450 822L450 861L450 861L450 900L450 900Z" fill="#66df61"></path><path d="M398 900L398 900L398 861L408 861L408 822L403 822L403 783L394 783L394 743L405 743L405 704L412 704L412 665L411 665L411 626L390 626L390 587L403 587L403 548L397 548L397 509L409 509L409 470L410 470L410 430L394 430L394 391L413 391L413 352L412 352L412 313L399 313L399 274L413 274L413 235L391 235L391 196L399 196L399 157L402 157L402 117L405 117L405 78L392 78L392 39L413 39L413 0L450 0L450 39L450 39L450 78L450 78L450 117L450 117L450 157L450 157L450 196L450 196L450 235L450 235L450 274L450 274L450 313L450 313L450 352L450 352L450 391L450 391L450 430L450 430L450 470L450 470L450 509L450 509L450 548L450 548L450 587L450 587L450 626L450 626L450 665L450 665L450 704L450 704L450 743L450 743L450 783L450 783L450 822L450 822L450 861L450 861L450 900L450 900Z" fill="#82f47e"></path><path d="M431 900L420 900L420 861L419 861L419 822L429 822L429 783L423 783L423 743L414 743L414 704L417 704L417 665L417 665L417 626L430 626L430 587L421 587L421 548L432 548L432 509L418 509L418 470L434 470L434 430L434 430L434 391L414 391L414 352L430 352L430 313L428 313L428 274L434 274L434 235L418 235L418 196L432 196L432 157L425 157L425 117L427 117L427 78L431 78L431 39L421 39L421 0L450 0L450 39L450 39L450 78L450 78L450 117L450 117L450 157L450 157L450 196L450 196L450 235L450 235L450 274L450 274L450 313L450 313L450 352L450 352L450 391L450 391L450 430L450 430L450 470L450 470L450 509L450 509L450 548L450 548L450 587L450 587L450 626L450 626L450 665L450 665L450 704L450 704L450 743L450 743L450 783L450 783L450 822L450 822L450 861L450 861L450 900L450 900Z" fill="#a1f89e"></path></svg>