<svg xmlns="http://www.w3.org/2000/svg" version="1.1" xmlns:xlink="http://www.w3.org/1999/xlink" xmlns:svgjs="http://svgjs.com/svgjs" width="1440" height="560" preserveAspectRatio="none" viewBox="0 0 1440 560"><g mask="url(&quot;#SvgjsMask1115&quot;)" fill="none"><rect width="1440" height="560" x="0" y="0" fill="url(#SvgjsLinearGradient1116)"></rect><path d="M211 313L210 171" stroke-width="10" stroke="url(#SvgjsLinearGradient1117)" stroke-linecap="round" class="Down"></path><path d="M169 371L168 147" stroke-width="10" stroke="url(#SvgjsLinearGradient1117)" stroke-linecap="round" class="Down"></path><path d="M287 464L286 103" stroke-width="8" stroke="url(#SvgjsLinearGradient1117)" stroke-linecap="round" class="Down"></path><path d="M218 330L217 -79" stroke-width="10" stroke="url(#SvgjsLinearGradient1118)" stroke-linecap="round" class="Up"></path><path d="M654 45L653 427" stroke-width="8" stroke="url(#SvgjsLinearGradient1118)" stroke-linecap="round" class="Up"></path><path d="M709 474L708 322" stroke-width="10" stroke="url(#SvgjsLinearGradient1117)" stroke-linecap="round" class="Down"></path><path d="M824 393L823 688" stroke-width="10" stroke="url(#SvgjsLinearGradient1117)" stroke-linecap="round" class="Down"></path><path d="M625 480L624 88" stroke-width="6" stroke="url(#SvgjsLinearGradient1117)" stroke-linecap="round" class="Down"></path><path d="M1214 11L1213 -270" stroke-width="8" stroke="url(#SvgjsLinearGradient1117)" stroke-linecap="round" class="Down"></path><path d="M39 425L38 578" stroke-width="10" stroke="url(#SvgjsLinearGradient1117)" stroke-linecap="round" class="Down"></path><path d="M1420 232L1419 15" stroke-width="8" stroke="url(#SvgjsLinearGradient1118)" stroke-linecap="round" class="Up"></path><path d="M1380 121L1379 538" stroke-width="8" stroke="url(#SvgjsLinearGradient1117)" stroke-linecap="round" class="Down"></path><path d="M192 383L191 547" stroke-width="8" stroke="url(#SvgjsLinearGradient1118)" stroke-linecap="round" class="Up"></path><path d="M295 231L294 -132" stroke-width="10" stroke="url(#SvgjsLinearGradient1117)" stroke-linecap="round" class="Down"></path><path d="M369 172L368 517" stroke-width="6" stroke="url(#SvgjsLinearGradient1117)" stroke-linecap="round" class="Down"></path><path d="M734 273L733 78" stroke-width="6" stroke="url(#SvgjsLinearGradient1117)" stroke-linecap="round" class="Down"></path><path d="M1334 320L1333 76" stroke-width="8" stroke="url(#SvgjsLinearGradient1118)" stroke-linecap="round" class="Up"></path><path d="M982 298L981 -103" stroke-width="6" stroke="url(#SvgjsLinearGradient1117)" stroke-linecap="round" class="Down"></path><path d="M257 311L256 558" stroke-width="8" stroke="url(#SvgjsLinearGradient1118)" stroke-linecap="round" class="Up"></path><path d="M996 241L995 -27" stroke-width="10" stroke="url(#SvgjsLinearGradient1117)" stroke-linecap="round" class="Down"></path><path d="M1365 311L1364 702" stroke-width="6" stroke="url(#SvgjsLinearGradient1117)" stroke-linecap="round" class="Down"></path><path d="M1345 439L1344 83" stroke-width="6" stroke="url(#SvgjsLinearGradient1118)" stroke-linecap="round" class="Up"></path><path d="M76 296L75 638" stroke-width="10" stroke="url(#SvgjsLinearGradient1117)" stroke-linecap="round" class="Down"></path><path d="M475 371L474 538" stroke-width="6" stroke="url(#SvgjsLinearGradient1117)" stroke-linecap="round" class="Down"></path><path d="M1041 398L1040 28" stroke-width="8" stroke="url(#SvgjsLinearGradient1118)" stroke-linecap="round" class="Up"></path><path d="M910 318L909 594" stroke-width="6" stroke="url(#SvgjsLinearGradient1117)" stroke-linecap="round" class="Down"></path><path d="M259 403L258 66" stroke-width="8" stroke="url(#SvgjsLinearGradient1117)" stroke-linecap="round" class="Down"></path><path d="M513 249L512 559" stroke-width="6" stroke="url(#SvgjsLinearGradient1118)" stroke-linecap="round" class="Up"></path><path d="M1430 442L1429 784" stroke-width="10" stroke="url(#SvgjsLinearGradient1118)" stroke-linecap="round" class="Up"></path><path d="M151 95L150 352" stroke-width="6" stroke="url(#SvgjsLinearGradient1118)" stroke-linecap="round" class="Up"></path><path d="M108 333L107 178" stroke-width="10" stroke="url(#SvgjsLinearGradient1117)" stroke-linecap="round" class="Down"></path><path d="M858 542L857 773" stroke-width="8" stroke="url(#SvgjsLinearGradient1117)" stroke-linecap="round" class="Down"></path><path d="M957 213L956 540" stroke-width="6" stroke="url(#SvgjsLinearGradient1117)" stroke-linecap="round" class="Down"></path><path d="M455 294L454 593" stroke-width="6" stroke="url(#SvgjsLinearGradient1118)" stroke-linecap="round" class="Up"></path><path d="M1408 276L1407 564" stroke-width="8" stroke="url(#SvgjsLinearGradient1118)" stroke-linecap="round" class="Up"></path><path d="M96 461L95 714" stroke-width="6" stroke="url(#SvgjsLinearGradient1118)" stroke-linecap="round" class="Up"></path></g><defs><mask id="SvgjsMask1115"><rect width="1440" height="560" fill="#ffffff"></rect></mask><linearGradient x1="50%" y1="100%" x2="50%" y2="0%" gradientUnits="userSpaceOnUse" id="SvgjsLinearGradient1116"><stop stop-color="#0e2a47" offset="0"></stop><stop stop-color="rgba(38, 44, 58, 1)" offset="1"></stop></linearGradient><linearGradient x1="0%" y1="0%" x2="0%" y2="100%" id="SvgjsLinearGradient1117"><stop stop-color="rgba(28, 83, 142, 0)" offset="0"></stop><stop stop-color="#1c538e" offset="1"></stop></linearGradient><linearGradient x1="0%" y1="100%" x2="0%" y2="0%" id="SvgjsLinearGradient1118"><stop stop-color="rgba(28, 83, 142, 0)" offset="0"></stop><stop stop-color="#1c538e" offset="1"></stop></linearGradient></defs></svg>