<svg xmlns="http://www.w3.org/2000/svg" version="1.1" xmlns:xlink="http://www.w3.org/1999/xlink" xmlns:svgjs="http://svgjs.com/svgjs" width="1440" height="560" preserveAspectRatio="none" viewBox="0 0 1440 560"><g mask="url(&quot;#SvgjsMask1024&quot;)" fill="none"><rect width="1440" height="560" x="0" y="0" fill="#0e2a47"></rect><path d="M-65.23 367.14L-65.23 367.14" stroke="#132e65" stroke-width="1.5"></path><path d="M-65.23 367.14L-111.25 500.04" stroke="#132e65" stroke-width="1.5"></path><path d="M-65.23 367.14L106.46 359.98" stroke="#132e65" stroke-width="1.5"></path><path d="M-111.25 500.04L-111.25 500.04" stroke="#132e65" stroke-width="1.5"></path><path d="M-111.25 500.04L41.27 536.48" stroke="#132e65" stroke-width="1.5"></path><path d="M-65.9 694.34L-65.9 694.34" stroke="#132e65" stroke-width="1.5"></path><path d="M-65.9 694.34L87.07 702.19" stroke="#132e65" stroke-width="1.5"></path><path d="M-65.9 694.34L41.27 536.48" stroke="#132e65" stroke-width="1.5"></path><path d="M-65.9 694.34L-111.25 500.04" stroke="#132e65" stroke-width="1.5"></path><path d="M-65.9 694.34L234.27 672.3" stroke="#132e65" stroke-width="1.5"></path><path d="M106.46 359.98L106.46 359.98" stroke="#132e65" stroke-width="1.5"></path><path d="M106.46 359.98L236.58 405.9" stroke="#132e65" stroke-width="1.5"></path><path d="M106.46 359.98L41.27 536.48" stroke="#132e65" stroke-width="1.5"></path><path d="M41.27 536.48L41.27 536.48" stroke="#132e65" stroke-width="1.5"></path><path d="M41.27 536.48L87.07 702.19" stroke="#132e65" stroke-width="1.5"></path><path d="M41.27 536.48L222.01 553.9" stroke="#132e65" stroke-width="1.5"></path><path d="M87.07 702.19L87.07 702.19" stroke="#132e65" stroke-width="1.5"></path><path d="M87.07 702.19L234.27 672.3" stroke="#132e65" stroke-width="1.5"></path><path d="M87.07 702.19L222.01 553.9" stroke="#132e65" stroke-width="1.5"></path><path d="M236.58 405.9L236.58 405.9" stroke="#132e65" stroke-width="1.5"></path><path d="M236.58 405.9L340.12 350.94" stroke="#132e65" stroke-width="1.5"></path><path d="M236.58 405.9L222.01 553.9" stroke="#132e65" stroke-width="1.5"></path><path d="M236.58 405.9L360.25 558.53" stroke="#132e65" stroke-width="1.5"></path><path d="M222.01 553.9L222.01 553.9" stroke="#132e65" stroke-width="1.5"></path><path d="M222.01 553.9L234.27 672.3" stroke="#132e65" stroke-width="1.5"></path><path d="M222.01 553.9L360.25 558.53" stroke="#132e65" stroke-width="1.5"></path><path d="M234.27 672.3L234.27 672.3" stroke="#132e65" stroke-width="1.5"></path><path d="M234.27 672.3L346.41 653.09" stroke="#132e65" stroke-width="1.5"></path><path d="M340.12 350.94L340.12 350.94" stroke="#132e65" stroke-width="1.5"></path><path d="M340.12 350.94L534.57 361.6" stroke="#132e65" stroke-width="1.5"></path><path d="M360.25 558.53L360.25 558.53" stroke="#132e65" stroke-width="1.5"></path><path d="M360.25 558.53L346.41 653.09" stroke="#132e65" stroke-width="1.5"></path><path d="M360.25 558.53L234.27 672.3" stroke="#132e65" stroke-width="1.5"></path><path d="M360.25 558.53L531.9 491.66" stroke="#132e65" stroke-width="1.5"></path><path d="M346.41 653.09L346.41 653.09" stroke="#132e65" stroke-width="1.5"></path><path d="M346.41 653.09L222.01 553.9" stroke="#132e65" stroke-width="1.5"></path><path d="M346.41 653.09L541.86 663.88" stroke="#132e65" stroke-width="1.5"></path><path d="M346.41 653.09L531.9 491.66" stroke="#132e65" stroke-width="1.5"></path><path d="M346.41 653.09L87.07 702.19" stroke="#132e65" stroke-width="1.5"></path><path d="M534.57 361.6L534.57 361.6" stroke="#132e65" stroke-width="1.5"></path><path d="M534.57 361.6L531.9 491.66" stroke="#132e65" stroke-width="1.5"></path><path d="M534.57 361.6L703.62 353.96" stroke="#132e65" stroke-width="1.5"></path><path d="M534.57 361.6L645.22 226.39" stroke="#132e65" stroke-width="1.5"></path><path d="M531.9 491.66L531.9 491.66" stroke="#132e65" stroke-width="1.5"></path><path d="M531.9 491.66L673.36 556.68" stroke="#132e65" stroke-width="1.5"></path><path d="M531.9 491.66L541.86 663.88" stroke="#132e65" stroke-width="1.5"></path><path d="M541.86 663.88L541.86 663.88" stroke="#132e65" stroke-width="1.5"></path><path d="M541.86 663.88L675.29 700.55" stroke="#132e65" stroke-width="1.5"></path><path d="M541.86 663.88L673.36 556.68" stroke="#132e65" stroke-width="1.5"></path><path d="M645.22 226.39L645.22 226.39" stroke="#132e65" stroke-width="1.5"></path><path d="M645.22 226.39L703.62 353.96" stroke="#132e65" stroke-width="1.5"></path><path d="M645.22 226.39L817.84 253.88" stroke="#132e65" stroke-width="1.5"></path><path d="M645.22 226.39L531.9 491.66" stroke="#132e65" stroke-width="1.5"></path><path d="M645.22 226.39L943.28 203.49" stroke="#132e65" stroke-width="1.5"></path><path d="M645.22 226.39L939.28 371.19" stroke="#132e65" stroke-width="1.5"></path><path d="M703.62 353.96L703.62 353.96" stroke="#132e65" stroke-width="1.5"></path><path d="M703.62 353.96L817.84 253.88" stroke="#132e65" stroke-width="1.5"></path><path d="M703.62 353.96L673.36 556.68" stroke="#132e65" stroke-width="1.5"></path><path d="M673.36 556.68L673.36 556.68" stroke="#132e65" stroke-width="1.5"></path><path d="M673.36 556.68L675.29 700.55" stroke="#132e65" stroke-width="1.5"></path><path d="M673.36 556.68L839.6 669.04" stroke="#132e65" stroke-width="1.5"></path><path d="M673.36 556.68L534.57 361.6" stroke="#132e65" stroke-width="1.5"></path><path d="M675.29 700.55L675.29 700.55" stroke="#132e65" stroke-width="1.5"></path><path d="M675.29 700.55L839.6 669.04" stroke="#132e65" stroke-width="1.5"></path><path d="M817.84 253.88L817.84 253.88" stroke="#132e65" stroke-width="1.5"></path><path d="M817.84 253.88L943.28 203.49" stroke="#132e65" stroke-width="1.5"></path><path d="M817.84 253.88L939.28 371.19" stroke="#132e65" stroke-width="1.5"></path><path d="M817.84 253.88L958.89 56.18" stroke="#132e65" stroke-width="1.5"></path><path d="M817.84 253.88L534.57 361.6" stroke="#132e65" stroke-width="1.5"></path><path d="M839.6 669.04L839.6 669.04" stroke="#132e65" stroke-width="1.5"></path><path d="M839.6 669.04L960.01 702.51" stroke="#132e65" stroke-width="1.5"></path><path d="M839.6 669.04L977.04 524.41" stroke="#132e65" stroke-width="1.5"></path><path d="M978.16 -76.28L978.16 -76.28" stroke="#132e65" stroke-width="1.5"></path><path d="M978.16 -76.28L958.89 56.18" stroke="#132e65" stroke-width="1.5"></path><path d="M978.16 -76.28L1131.63 -41.66" stroke="#132e65" stroke-width="1.5"></path><path d="M978.16 -76.28L1093.39 111.68" stroke="#132e65" stroke-width="1.5"></path><path d="M978.16 -76.28L943.28 203.49" stroke="#132e65" stroke-width="1.5"></path><path d="M958.89 56.18L958.89 56.18" stroke="#132e65" stroke-width="1.5"></path><path d="M958.89 56.18L1093.39 111.68" stroke="#132e65" stroke-width="1.5"></path><path d="M958.89 56.18L943.28 203.49" stroke="#132e65" stroke-width="1.5"></path><path d="M943.28 203.49L943.28 203.49" stroke="#132e65" stroke-width="1.5"></path><path d="M943.28 203.49L939.28 371.19" stroke="#132e65" stroke-width="1.5"></path><path d="M943.28 203.49L1093.39 111.68" stroke="#132e65" stroke-width="1.5"></path><path d="M943.28 203.49L1152.37 223.34" stroke="#132e65" stroke-width="1.5"></path><path d="M943.28 203.49L1142.35 377.91" stroke="#132e65" stroke-width="1.5"></path><path d="M939.28 371.19L939.28 371.19" stroke="#132e65" stroke-width="1.5"></path><path d="M939.28 371.19L977.04 524.41" stroke="#132e65" stroke-width="1.5"></path><path d="M977.04 524.41L977.04 524.41" stroke="#132e65" stroke-width="1.5"></path><path d="M977.04 524.41L1093.99 559.77" stroke="#132e65" stroke-width="1.5"></path><path d="M977.04 524.41L960.01 702.51" stroke="#132e65" stroke-width="1.5"></path><path d="M977.04 524.41L1148.46 663.31" stroke="#132e65" stroke-width="1.5"></path><path d="M977.04 524.41L1142.35 377.91" stroke="#132e65" stroke-width="1.5"></path><path d="M960.01 702.51L960.01 702.51" stroke="#132e65" stroke-width="1.5"></path><path d="M960.01 702.51L1148.46 663.31" stroke="#132e65" stroke-width="1.5"></path><path d="M960.01 702.51L1093.99 559.77" stroke="#132e65" stroke-width="1.5"></path><path d="M960.01 702.51L675.29 700.55" stroke="#132e65" stroke-width="1.5"></path><path d="M960.01 702.51L673.36 556.68" stroke="#132e65" stroke-width="1.5"></path><path d="M1131.63 -41.66L1131.63 -41.66" stroke="#132e65" stroke-width="1.5"></path><path d="M1131.63 -41.66L1093.39 111.68" stroke="#132e65" stroke-width="1.5"></path><path d="M1131.63 -41.66L1297.33 -50.33" stroke="#132e65" stroke-width="1.5"></path><path d="M1093.39 111.68L1093.39 111.68" stroke="#132e65" stroke-width="1.5"></path><path d="M1093.39 111.68L1152.37 223.34" stroke="#132e65" stroke-width="1.5"></path><path d="M1152.37 223.34L1152.37 223.34" stroke="#132e65" stroke-width="1.5"></path><path d="M1152.37 223.34L1240.2 228.91" stroke="#132e65" stroke-width="1.5"></path><path d="M1152.37 223.34L1142.35 377.91" stroke="#132e65" stroke-width="1.5"></path><path d="M1152.37 223.34L1296.44 75.7" stroke="#132e65" stroke-width="1.5"></path><path d="M1142.35 377.91L1142.35 377.91" stroke="#132e65" stroke-width="1.5"></path><path d="M1142.35 377.91L1253.3 409.17" stroke="#132e65" stroke-width="1.5"></path><path d="M1093.99 559.77L1093.99 559.77" stroke="#132e65" stroke-width="1.5"></path><path d="M1093.99 559.77L1148.46 663.31" stroke="#132e65" stroke-width="1.5"></path><path d="M1093.99 559.77L1254.47 558.48" stroke="#132e65" stroke-width="1.5"></path><path d="M1148.46 663.31L1148.46 663.31" stroke="#132e65" stroke-width="1.5"></path><path d="M1148.46 663.31L1254.47 558.48" stroke="#132e65" stroke-width="1.5"></path><path d="M1148.46 663.31L1309.75 643.09" stroke="#132e65" stroke-width="1.5"></path><path d="M1297.33 -50.33L1297.33 -50.33" stroke="#132e65" stroke-width="1.5"></path><path d="M1297.33 -50.33L1296.44 75.7" stroke="#132e65" stroke-width="1.5"></path><path d="M1297.33 -50.33L1430.4 -99.48" stroke="#132e65" stroke-width="1.5"></path><path d="M1296.44 75.7L1296.44 75.7" stroke="#132e65" stroke-width="1.5"></path><path d="M1296.44 75.7L1416.32 53.19" stroke="#132e65" stroke-width="1.5"></path><path d="M1296.44 75.7L1240.2 228.91" stroke="#132e65" stroke-width="1.5"></path><path d="M1296.44 75.7L1131.63 -41.66" stroke="#132e65" stroke-width="1.5"></path><path d="M1296.44 75.7L1093.39 111.68" stroke="#132e65" stroke-width="1.5"></path><path d="M1240.2 228.91L1240.2 228.91" stroke="#132e65" stroke-width="1.5"></path><path d="M1240.2 228.91L1142.35 377.91" stroke="#132e65" stroke-width="1.5"></path><path d="M1240.2 228.91L1253.3 409.17" stroke="#132e65" stroke-width="1.5"></path><path d="M1240.2 228.91L1093.39 111.68" stroke="#132e65" stroke-width="1.5"></path><path d="M1253.3 409.17L1253.3 409.17" stroke="#132e65" stroke-width="1.5"></path><path d="M1253.3 409.17L1254.47 558.48" stroke="#132e65" stroke-width="1.5"></path><path d="M1253.3 409.17L1408.86 365.16" stroke="#132e65" stroke-width="1.5"></path><path d="M1254.47 558.48L1254.47 558.48" stroke="#132e65" stroke-width="1.5"></path><path d="M1254.47 558.48L1309.75 643.09" stroke="#132e65" stroke-width="1.5"></path><path d="M1309.75 643.09L1309.75 643.09" stroke="#132e65" stroke-width="1.5"></path><path d="M1309.75 643.09L1393.24 644" stroke="#132e65" stroke-width="1.5"></path><path d="M1309.75 643.09L1422.03 552.18" stroke="#132e65" stroke-width="1.5"></path><path d="M1309.75 643.09L1093.99 559.77" stroke="#132e65" stroke-width="1.5"></path><path d="M1309.75 643.09L1253.3 409.17" stroke="#132e65" stroke-width="1.5"></path><path d="M1430.4 -99.48L1430.4 -99.48" stroke="#132e65" stroke-width="1.5"></path><path d="M1430.4 -99.48L1547.5 -93.85" stroke="#132e65" stroke-width="1.5"></path><path d="M1430.4 -99.48L1416.32 53.19" stroke="#132e65" stroke-width="1.5"></path><path d="M1430.4 -99.48L1296.44 75.7" stroke="#132e65" stroke-width="1.5"></path><path d="M1430.4 -99.48L1131.63 -41.66" stroke="#132e65" stroke-width="1.5"></path><path d="M1416.32 53.19L1416.32 53.19" stroke="#132e65" stroke-width="1.5"></path><path d="M1456.43 233.23L1456.43 233.23" stroke="#132e65" stroke-width="1.5"></path><path d="M1456.43 233.23L1548.43 257.05" stroke="#132e65" stroke-width="1.5"></path><path d="M1456.43 233.23L1408.86 365.16" stroke="#132e65" stroke-width="1.5"></path><path d="M1408.86 365.16L1408.86 365.16" stroke="#132e65" stroke-width="1.5"></path><path d="M1408.86 365.16L1558.87 411.47" stroke="#132e65" stroke-width="1.5"></path><path d="M1408.86 365.16L1548.43 257.05" stroke="#132e65" stroke-width="1.5"></path><path d="M1408.86 365.16L1422.03 552.18" stroke="#132e65" stroke-width="1.5"></path><path d="M1422.03 552.18L1422.03 552.18" stroke="#132e65" stroke-width="1.5"></path><path d="M1422.03 552.18L1393.24 644" stroke="#132e65" stroke-width="1.5"></path><path d="M1393.24 644L1393.24 644" stroke="#132e65" stroke-width="1.5"></path><path d="M1393.24 644L1254.47 558.48" stroke="#132e65" stroke-width="1.5"></path><path d="M1393.24 644L1577.1 542.77" stroke="#132e65" stroke-width="1.5"></path><path d="M1547.5 -93.85L1547.5 -93.85" stroke="#132e65" stroke-width="1.5"></path><path d="M1547.5 -93.85L1416.32 53.19" stroke="#132e65" stroke-width="1.5"></path><path d="M1547.5 -93.85L1297.33 -50.33" stroke="#132e65" stroke-width="1.5"></path><path d="M1548.43 257.05L1548.43 257.05" stroke="#132e65" stroke-width="1.5"></path><path d="M1548.43 257.05L1558.87 411.47" stroke="#132e65" stroke-width="1.5"></path><path d="M1548.43 257.05L1416.32 53.19" stroke="#132e65" stroke-width="1.5"></path><path d="M1548.43 257.05L1577.1 542.77" stroke="#132e65" stroke-width="1.5"></path><path d="M1548.43 257.05L1240.2 228.91" stroke="#132e65" stroke-width="1.5"></path><path d="M1558.87 411.47L1558.87 411.47" stroke="#132e65" stroke-width="1.5"></path><path d="M1558.87 411.47L1577.1 542.77" stroke="#132e65" stroke-width="1.5"></path><path d="M1577.1 542.77L1577.1 542.77" stroke="#132e65" stroke-width="1.5"></path><path d="M1577.1 542.77L1422.03 552.18" stroke="#132e65" stroke-width="1.5"></path><circle r="5" cx="-65.23" cy="367.14" fill="#132e65"></circle><circle r="5" cx="-111.25" cy="500.04" fill="#132e65"></circle><circle r="5" cx="-65.9" cy="694.34" fill="#132e65"></circle><circle r="5" cx="106.46" cy="359.98" fill="#132e65"></circle><circle r="5" cx="41.27" cy="536.48" fill="#132e65"></circle><circle r="5" cx="87.07" cy="702.19" fill="#132e65"></circle><circle r="5" cx="236.58" cy="405.9" fill="#132e65"></circle><circle r="5" cx="222.01" cy="553.9" fill="#132e65"></circle><circle r="5" cx="234.27" cy="672.3" fill="#132e65"></circle><circle r="5" cx="340.12" cy="350.94" fill="#132e65"></circle><circle r="5" cx="360.25" cy="558.53" fill="#132e65"></circle><circle r="5" cx="346.41" cy="653.09" fill="#132e65"></circle><circle r="5" cx="534.57" cy="361.6" fill="#132e65"></circle><circle r="5" cx="531.9" cy="491.66" fill="#132e65"></circle><circle r="5" cx="541.86" cy="663.88" fill="#132e65"></circle><circle r="5" cx="645.22" cy="226.39" fill="#132e65"></circle><circle r="5" cx="703.62" cy="353.96" fill="#132e65"></circle><circle r="5" cx="673.36" cy="556.68" fill="#132e65"></circle><circle r="5" cx="675.29" cy="700.55" fill="#132e65"></circle><circle r="5" cx="817.84" cy="253.88" fill="#132e65"></circle><circle r="5" cx="839.6" cy="669.04" fill="#132e65"></circle><circle r="5" cx="978.16" cy="-76.28" fill="#132e65"></circle><circle r="5" cx="958.89" cy="56.18" fill="#132e65"></circle><circle r="5" cx="943.28" cy="203.49" fill="#132e65"></circle><circle r="5" cx="939.28" cy="371.19" fill="#132e65"></circle><circle r="5" cx="977.04" cy="524.41" fill="#132e65"></circle><circle r="5" cx="960.01" cy="702.51" fill="#132e65"></circle><circle r="5" cx="1131.63" cy="-41.66" fill="#132e65"></circle><circle r="5" cx="1093.39" cy="111.68" fill="#132e65"></circle><circle r="5" cx="1152.37" cy="223.34" fill="#132e65"></circle><circle r="5" cx="1142.35" cy="377.91" fill="#132e65"></circle><circle r="5" cx="1093.99" cy="559.77" fill="#132e65"></circle><circle r="5" cx="1148.46" cy="663.31" fill="#132e65"></circle><circle r="5" cx="1297.33" cy="-50.33" fill="#132e65"></circle><circle r="5" cx="1296.44" cy="75.7" fill="#132e65"></circle><circle r="5" cx="1240.2" cy="228.91" fill="#132e65"></circle><circle r="5" cx="1253.3" cy="409.17" fill="#132e65"></circle><circle r="5" cx="1254.47" cy="558.48" fill="#132e65"></circle><circle r="5" cx="1309.75" cy="643.09" fill="#132e65"></circle><circle r="5" cx="1430.4" cy="-99.48" fill="#132e65"></circle><circle r="5" cx="1416.32" cy="53.19" fill="#132e65"></circle><circle r="5" cx="1456.43" cy="233.23" fill="#132e65"></circle><circle r="5" cx="1408.86" cy="365.16" fill="#132e65"></circle><circle r="5" cx="1422.03" cy="552.18" fill="#132e65"></circle><circle r="5" cx="1393.24" cy="644" fill="#132e65"></circle><circle r="5" cx="1547.5" cy="-93.85" fill="#132e65"></circle><circle r="5" cx="1548.43" cy="257.05" fill="#132e65"></circle><circle r="5" cx="1558.87" cy="411.47" fill="#132e65"></circle><circle r="5" cx="1577.1" cy="542.77" fill="#132e65"></circle><path d="M187.78 533.98L187.78 533.98" stroke="hsl(228.5, 77.2%, 51.5%)" stroke-width="1.5"></path><path d="M187.78 533.98L59 533.23" stroke="hsl(228.5, 77.2%, 51.5%)" stroke-width="1.5"></path><path d="M187.78 533.98L347.88 546.24" stroke="hsl(228.5, 77.2%, 51.5%)" stroke-width="1.5"></path><path d="M347.88 546.24L347.88 546.24" stroke="hsl(228.5, 77.2%, 51.5%)" stroke-width="1.5"></path><path d="M347.88 546.24L244.78 708.94" stroke="hsl(228.5, 77.2%, 51.5%)" stroke-width="1.5"></path><path d="M347.88 546.24L545.38 525.56" stroke="hsl(228.5, 77.2%, 51.5%)" stroke-width="1.5"></path><path d="M545.38 525.56L545.38 525.56" stroke="hsl(228.5, 77.2%, 51.5%)" stroke-width="1.5"></path><path d="M545.38 525.56L653.57 523.08" stroke="hsl(228.5, 77.2%, 51.5%)" stroke-width="1.5"></path><path d="M545.38 525.56L527.44 689.77" stroke="hsl(228.5, 77.2%, 51.5%)" stroke-width="1.5"></path><path d="M545.38 525.56L659.64 392.5" stroke="hsl(228.5, 77.2%, 51.5%)" stroke-width="1.5"></path><path d="M1141.79 650.09L1141.79 650.09" stroke="hsl(228.5, 77.2%, 51.5%)" stroke-width="1.5"></path><path d="M1141.79 650.09L1151.71 540.83" stroke="hsl(228.5, 77.2%, 51.5%)" stroke-width="1.5"></path><path d="M1244.91 41.41L1244.91 41.41" stroke="hsl(228.5, 77.2%, 51.5%)" stroke-width="1.5"></path><path d="M1244.91 41.41L1150.65 109.37" stroke="hsl(228.5, 77.2%, 51.5%)" stroke-width="1.5"></path><path d="M1244.91 41.41L1290.72 -82.26" stroke="hsl(228.5, 77.2%, 51.5%)" stroke-width="1.5"></path><path d="M1244.91 41.41L1415.46 107.54" stroke="hsl(228.5, 77.2%, 51.5%)" stroke-width="1.5"></path><path d="M1244.91 41.41L1131.48 217.52" stroke="hsl(228.5, 77.2%, 51.5%)" stroke-width="1.5"></path><path d="M1244.91 41.41L1275.64 259.81" stroke="hsl(228.5, 77.2%, 51.5%)" stroke-width="1.5"></path><path d="M1556.7 -104.98L1556.7 -104.98" stroke="hsl(228.5, 77.2%, 51.5%)" stroke-width="1.5"></path><path d="M1556.7 -104.98L1415.46 107.54" stroke="hsl(228.5, 77.2%, 51.5%)" stroke-width="1.5"></path><path d="M1556.7 -104.98L1290.72 -82.26" stroke="hsl(228.5, 77.2%, 51.5%)" stroke-width="1.5"></path><path d="M1608.68 248.21L1608.68 248.21" stroke="hsl(228.5, 77.2%, 51.5%)" stroke-width="1.5"></path><path d="M1608.68 248.21L1611.67 380.54" stroke="hsl(228.5, 77.2%, 51.5%)" stroke-width="1.5"></path><path d="M1608.68 248.21L1428.98 358.73" stroke="hsl(228.5, 77.2%, 51.5%)" stroke-width="1.5"></path><path d="M1608.68 248.21L1415.46 107.54" stroke="hsl(228.5, 77.2%, 51.5%)" stroke-width="1.5"></path><path d="M1608.68 248.21L1547.71 558.7" stroke="hsl(228.5, 77.2%, 51.5%)" stroke-width="1.5"></path><path d="M1608.68 248.21L1400.54 488.55" stroke="hsl(228.5, 77.2%, 51.5%)" stroke-width="1.5"></path><path d="M1608.68 248.21L1275.64 259.81" stroke="hsl(228.5, 77.2%, 51.5%)" stroke-width="1.5"></path><path d="M1547.71 558.7L1547.71 558.7" stroke="hsl(228.5, 77.2%, 51.5%)" stroke-width="1.5"></path><path d="M1547.71 558.7L1582.01 663.02" stroke="hsl(228.5, 77.2%, 51.5%)" stroke-width="1.5"></path><path d="M1547.71 558.7L1432.43 662.23" stroke="hsl(228.5, 77.2%, 51.5%)" stroke-width="1.5"></path><path d="M1547.71 558.7L1400.54 488.55" stroke="hsl(228.5, 77.2%, 51.5%)" stroke-width="1.5"></path><path d="M-79.82 559.96L-79.82 559.96" stroke="hsl(228.5, 77.2%, 51.5%)" stroke-width="1.5"></path><path d="M-79.82 559.96L-53.5 669.24" stroke="hsl(228.5, 77.2%, 51.5%)" stroke-width="1.5"></path><path d="M-79.82 559.96L59 533.23" stroke="hsl(228.5, 77.2%, 51.5%)" stroke-width="1.5"></path><path d="M-79.82 559.96L71.16 652.64" stroke="hsl(228.5, 77.2%, 51.5%)" stroke-width="1.5"></path><path d="M-79.82 559.96L187.78 533.98" stroke="hsl(228.5, 77.2%, 51.5%)" stroke-width="1.5"></path><path d="M-79.82 559.96L244.78 708.94" stroke="hsl(228.5, 77.2%, 51.5%)" stroke-width="1.5"></path><path d="M-53.5 669.24L-53.5 669.24" stroke="hsl(228.5, 77.2%, 51.5%)" stroke-width="1.5"></path><path d="M-53.5 669.24L71.16 652.64" stroke="hsl(228.5, 77.2%, 51.5%)" stroke-width="1.5"></path><path d="M-53.5 669.24L59 533.23" stroke="hsl(228.5, 77.2%, 51.5%)" stroke-width="1.5"></path><path d="M59 533.23L59 533.23" stroke="hsl(228.5, 77.2%, 51.5%)" stroke-width="1.5"></path><path d="M59 533.23L71.16 652.64" stroke="hsl(228.5, 77.2%, 51.5%)" stroke-width="1.5"></path><path d="M59 533.23L244.78 708.94" stroke="hsl(228.5, 77.2%, 51.5%)" stroke-width="1.5"></path><path d="M59 533.23L347.88 546.24" stroke="hsl(228.5, 77.2%, 51.5%)" stroke-width="1.5"></path><path d="M71.16 652.64L71.16 652.64" stroke="hsl(228.5, 77.2%, 51.5%)" stroke-width="1.5"></path><path d="M244.78 708.94L244.78 708.94" stroke="hsl(228.5, 77.2%, 51.5%)" stroke-width="1.5"></path><path d="M244.78 708.94L71.16 652.64" stroke="hsl(228.5, 77.2%, 51.5%)" stroke-width="1.5"></path><path d="M244.78 708.94L187.78 533.98" stroke="hsl(228.5, 77.2%, 51.5%)" stroke-width="1.5"></path><path d="M244.78 708.94L527.44 689.77" stroke="hsl(228.5, 77.2%, 51.5%)" stroke-width="1.5"></path><path d="M527.44 689.77L527.44 689.77" stroke="hsl(228.5, 77.2%, 51.5%)" stroke-width="1.5"></path><path d="M527.44 689.77L677.01 698.79" stroke="hsl(228.5, 77.2%, 51.5%)" stroke-width="1.5"></path><path d="M527.44 689.77L653.57 523.08" stroke="hsl(228.5, 77.2%, 51.5%)" stroke-width="1.5"></path><path d="M527.44 689.77L347.88 546.24" stroke="hsl(228.5, 77.2%, 51.5%)" stroke-width="1.5"></path><path d="M527.44 689.77L806.82 548.08" stroke="hsl(228.5, 77.2%, 51.5%)" stroke-width="1.5"></path><path d="M659.64 392.5L659.64 392.5" stroke="hsl(228.5, 77.2%, 51.5%)" stroke-width="1.5"></path><path d="M659.64 392.5L653.57 523.08" stroke="hsl(228.5, 77.2%, 51.5%)" stroke-width="1.5"></path><path d="M659.64 392.5L858.86 353.92" stroke="hsl(228.5, 77.2%, 51.5%)" stroke-width="1.5"></path><path d="M659.64 392.5L806.82 548.08" stroke="hsl(228.5, 77.2%, 51.5%)" stroke-width="1.5"></path><path d="M659.64 392.5L677.01 698.79" stroke="hsl(228.5, 77.2%, 51.5%)" stroke-width="1.5"></path><path d="M653.57 523.08L653.57 523.08" stroke="hsl(228.5, 77.2%, 51.5%)" stroke-width="1.5"></path><path d="M653.57 523.08L806.82 548.08" stroke="hsl(228.5, 77.2%, 51.5%)" stroke-width="1.5"></path><path d="M653.57 523.08L677.01 698.79" stroke="hsl(228.5, 77.2%, 51.5%)" stroke-width="1.5"></path><path d="M677.01 698.79L677.01 698.79" stroke="hsl(228.5, 77.2%, 51.5%)" stroke-width="1.5"></path><path d="M677.01 698.79L846.47 702.64" stroke="hsl(228.5, 77.2%, 51.5%)" stroke-width="1.5"></path><path d="M858.86 353.92L858.86 353.92" stroke="hsl(228.5, 77.2%, 51.5%)" stroke-width="1.5"></path><path d="M858.86 353.92L1010.31 354.27" stroke="hsl(228.5, 77.2%, 51.5%)" stroke-width="1.5"></path><path d="M858.86 353.92L976.27 257.45" stroke="hsl(228.5, 77.2%, 51.5%)" stroke-width="1.5"></path><path d="M858.86 353.92L949.68 497.69" stroke="hsl(228.5, 77.2%, 51.5%)" stroke-width="1.5"></path><path d="M858.86 353.92L806.82 548.08" stroke="hsl(228.5, 77.2%, 51.5%)" stroke-width="1.5"></path><path d="M806.82 548.08L806.82 548.08" stroke="hsl(228.5, 77.2%, 51.5%)" stroke-width="1.5"></path><path d="M806.82 548.08L949.68 497.69" stroke="hsl(228.5, 77.2%, 51.5%)" stroke-width="1.5"></path><path d="M806.82 548.08L846.47 702.64" stroke="hsl(228.5, 77.2%, 51.5%)" stroke-width="1.5"></path><path d="M806.82 548.08L939.76 654.91" stroke="hsl(228.5, 77.2%, 51.5%)" stroke-width="1.5"></path><path d="M846.47 702.64L846.47 702.64" stroke="hsl(228.5, 77.2%, 51.5%)" stroke-width="1.5"></path><path d="M846.47 702.64L939.76 654.91" stroke="hsl(228.5, 77.2%, 51.5%)" stroke-width="1.5"></path><path d="M976.27 257.45L976.27 257.45" stroke="hsl(228.5, 77.2%, 51.5%)" stroke-width="1.5"></path><path d="M976.27 257.45L1010.31 354.27" stroke="hsl(228.5, 77.2%, 51.5%)" stroke-width="1.5"></path><path d="M976.27 257.45L1131.48 217.52" stroke="hsl(228.5, 77.2%, 51.5%)" stroke-width="1.5"></path><path d="M976.27 257.45L1147.16 401.35" stroke="hsl(228.5, 77.2%, 51.5%)" stroke-width="1.5"></path><path d="M976.27 257.45L1150.65 109.37" stroke="hsl(228.5, 77.2%, 51.5%)" stroke-width="1.5"></path><path d="M976.27 257.45L949.68 497.69" stroke="hsl(228.5, 77.2%, 51.5%)" stroke-width="1.5"></path><path d="M1010.31 354.27L1010.31 354.27" stroke="hsl(228.5, 77.2%, 51.5%)" stroke-width="1.5"></path><path d="M949.68 497.69L949.68 497.69" stroke="hsl(228.5, 77.2%, 51.5%)" stroke-width="1.5"></path><path d="M949.68 497.69L1010.31 354.27" stroke="hsl(228.5, 77.2%, 51.5%)" stroke-width="1.5"></path><path d="M949.68 497.69L939.76 654.91" stroke="hsl(228.5, 77.2%, 51.5%)" stroke-width="1.5"></path><path d="M939.76 654.91L939.76 654.91" stroke="hsl(228.5, 77.2%, 51.5%)" stroke-width="1.5"></path><path d="M939.76 654.91L1141.79 650.09" stroke="hsl(228.5, 77.2%, 51.5%)" stroke-width="1.5"></path><path d="M939.76 654.91L1151.71 540.83" stroke="hsl(228.5, 77.2%, 51.5%)" stroke-width="1.5"></path><path d="M939.76 654.91L677.01 698.79" stroke="hsl(228.5, 77.2%, 51.5%)" stroke-width="1.5"></path><path d="M1150.65 109.37L1150.65 109.37" stroke="hsl(228.5, 77.2%, 51.5%)" stroke-width="1.5"></path><path d="M1150.65 109.37L1131.48 217.52" stroke="hsl(228.5, 77.2%, 51.5%)" stroke-width="1.5"></path><path d="M1150.65 109.37L1275.64 259.81" stroke="hsl(228.5, 77.2%, 51.5%)" stroke-width="1.5"></path><path d="M1150.65 109.37L1290.72 -82.26" stroke="hsl(228.5, 77.2%, 51.5%)" stroke-width="1.5"></path><path d="M1131.48 217.52L1131.48 217.52" stroke="hsl(228.5, 77.2%, 51.5%)" stroke-width="1.5"></path><path d="M1131.48 217.52L1275.64 259.81" stroke="hsl(228.5, 77.2%, 51.5%)" stroke-width="1.5"></path><path d="M1147.16 401.35L1147.16 401.35" stroke="hsl(228.5, 77.2%, 51.5%)" stroke-width="1.5"></path><path d="M1147.16 401.35L1256.01 348.95" stroke="hsl(228.5, 77.2%, 51.5%)" stroke-width="1.5"></path><path d="M1147.16 401.35L1151.71 540.83" stroke="hsl(228.5, 77.2%, 51.5%)" stroke-width="1.5"></path><path d="M1147.16 401.35L1010.31 354.27" stroke="hsl(228.5, 77.2%, 51.5%)" stroke-width="1.5"></path><path d="M1151.71 540.83L1151.71 540.83" stroke="hsl(228.5, 77.2%, 51.5%)" stroke-width="1.5"></path><path d="M1151.71 540.83L1279.72 502.34" stroke="hsl(228.5, 77.2%, 51.5%)" stroke-width="1.5"></path><path d="M1290.72 -82.26L1290.72 -82.26" stroke="hsl(228.5, 77.2%, 51.5%)" stroke-width="1.5"></path><path d="M1290.72 -82.26L1415.46 107.54" stroke="hsl(228.5, 77.2%, 51.5%)" stroke-width="1.5"></path><path d="M1290.72 -82.26L1131.48 217.52" stroke="hsl(228.5, 77.2%, 51.5%)" stroke-width="1.5"></path><path d="M1275.64 259.81L1275.64 259.81" stroke="hsl(228.5, 77.2%, 51.5%)" stroke-width="1.5"></path><path d="M1275.64 259.81L1256.01 348.95" stroke="hsl(228.5, 77.2%, 51.5%)" stroke-width="1.5"></path><path d="M1256.01 348.95L1256.01 348.95" stroke="hsl(228.5, 77.2%, 51.5%)" stroke-width="1.5"></path><path d="M1256.01 348.95L1279.72 502.34" stroke="hsl(228.5, 77.2%, 51.5%)" stroke-width="1.5"></path><path d="M1256.01 348.95L1428.98 358.73" stroke="hsl(228.5, 77.2%, 51.5%)" stroke-width="1.5"></path><path d="M1256.01 348.95L1131.48 217.52" stroke="hsl(228.5, 77.2%, 51.5%)" stroke-width="1.5"></path><path d="M1256.01 348.95L1400.54 488.55" stroke="hsl(228.5, 77.2%, 51.5%)" stroke-width="1.5"></path><path d="M1279.72 502.34L1279.72 502.34" stroke="hsl(228.5, 77.2%, 51.5%)" stroke-width="1.5"></path><path d="M1279.72 502.34L1400.54 488.55" stroke="hsl(228.5, 77.2%, 51.5%)" stroke-width="1.5"></path><path d="M1276.78 671.95L1276.78 671.95" stroke="hsl(228.5, 77.2%, 51.5%)" stroke-width="1.5"></path><path d="M1276.78 671.95L1141.79 650.09" stroke="hsl(228.5, 77.2%, 51.5%)" stroke-width="1.5"></path><path d="M1415.46 107.54L1415.46 107.54" stroke="hsl(228.5, 77.2%, 51.5%)" stroke-width="1.5"></path><path d="M1415.46 107.54L1275.64 259.81" stroke="hsl(228.5, 77.2%, 51.5%)" stroke-width="1.5"></path><path d="M1428.98 358.73L1428.98 358.73" stroke="hsl(228.5, 77.2%, 51.5%)" stroke-width="1.5"></path><path d="M1428.98 358.73L1400.54 488.55" stroke="hsl(228.5, 77.2%, 51.5%)" stroke-width="1.5"></path><path d="M1428.98 358.73L1275.64 259.81" stroke="hsl(228.5, 77.2%, 51.5%)" stroke-width="1.5"></path><path d="M1428.98 358.73L1611.67 380.54" stroke="hsl(228.5, 77.2%, 51.5%)" stroke-width="1.5"></path><path d="M1428.98 358.73L1279.72 502.34" stroke="hsl(228.5, 77.2%, 51.5%)" stroke-width="1.5"></path><path d="M1400.54 488.55L1400.54 488.55" stroke="hsl(228.5, 77.2%, 51.5%)" stroke-width="1.5"></path><path d="M1400.54 488.55L1432.43 662.23" stroke="hsl(228.5, 77.2%, 51.5%)" stroke-width="1.5"></path><path d="M1432.43 662.23L1432.43 662.23" stroke="hsl(228.5, 77.2%, 51.5%)" stroke-width="1.5"></path><path d="M1432.43 662.23L1582.01 663.02" stroke="hsl(228.5, 77.2%, 51.5%)" stroke-width="1.5"></path><path d="M1432.43 662.23L1276.78 671.95" stroke="hsl(228.5, 77.2%, 51.5%)" stroke-width="1.5"></path><path d="M1432.43 662.23L1279.72 502.34" stroke="hsl(228.5, 77.2%, 51.5%)" stroke-width="1.5"></path><path d="M1432.43 662.23L1141.79 650.09" stroke="hsl(228.5, 77.2%, 51.5%)" stroke-width="1.5"></path><path d="M1611.67 380.54L1611.67 380.54" stroke="hsl(228.5, 77.2%, 51.5%)" stroke-width="1.5"></path><path d="M1611.67 380.54L1547.71 558.7" stroke="hsl(228.5, 77.2%, 51.5%)" stroke-width="1.5"></path><path d="M1582.01 663.02L1582.01 663.02" stroke="hsl(228.5, 77.2%, 51.5%)" stroke-width="1.5"></path><path d="M1582.01 663.02L1400.54 488.55" stroke="hsl(228.5, 77.2%, 51.5%)" stroke-width="1.5"></path><path d="M1582.01 663.02L1611.67 380.54" stroke="hsl(228.5, 77.2%, 51.5%)" stroke-width="1.5"></path><path d="M1582.01 663.02L1276.78 671.95" stroke="hsl(228.5, 77.2%, 51.5%)" stroke-width="1.5"></path><circle r="25" cx="187.78" cy="533.98" fill="url(#SvgjsRadialGradient1025)"></circle><circle r="25" cx="347.88" cy="546.24" fill="url(#SvgjsRadialGradient1025)"></circle><circle r="25" cx="545.38" cy="525.56" fill="url(#SvgjsRadialGradient1025)"></circle><circle r="25" cx="1141.79" cy="650.09" fill="url(#SvgjsRadialGradient1025)"></circle><circle r="25" cx="1244.91" cy="41.41" fill="url(#SvgjsRadialGradient1025)"></circle><circle r="25" cx="1556.7" cy="-104.98" fill="url(#SvgjsRadialGradient1025)"></circle><circle r="25" cx="1608.68" cy="248.21" fill="url(#SvgjsRadialGradient1025)"></circle><circle r="25" cx="1547.71" cy="558.7" fill="url(#SvgjsRadialGradient1025)"></circle><circle r="5" cx="-79.82" cy="559.96" fill="#8b9ad9"></circle><circle r="5" cx="-53.5" cy="669.24" fill="#8b9ad9"></circle><circle r="5" cx="59" cy="533.23" fill="#8b9ad9"></circle><circle r="5" cx="71.16" cy="652.64" fill="#8b9ad9"></circle><circle r="5" cx="244.78" cy="708.94" fill="#8b9ad9"></circle><circle r="5" cx="527.44" cy="689.77" fill="#8b9ad9"></circle><circle r="5" cx="659.64" cy="392.5" fill="#8b9ad9"></circle><circle r="5" cx="653.57" cy="523.08" fill="#8b9ad9"></circle><circle r="5" cx="677.01" cy="698.79" fill="#8b9ad9"></circle><circle r="5" cx="858.86" cy="353.92" fill="#8b9ad9"></circle><circle r="5" cx="806.82" cy="548.08" fill="#8b9ad9"></circle><circle r="5" cx="846.47" cy="702.64" fill="#8b9ad9"></circle><circle r="5" cx="976.27" cy="257.45" fill="#8b9ad9"></circle><circle r="5" cx="1010.31" cy="354.27" fill="#8b9ad9"></circle><circle r="5" cx="949.68" cy="497.69" fill="#8b9ad9"></circle><circle r="5" cx="939.76" cy="654.91" fill="#8b9ad9"></circle><circle r="5" cx="1150.65" cy="109.37" fill="#8b9ad9"></circle><circle r="5" cx="1131.48" cy="217.52" fill="#8b9ad9"></circle><circle r="5" cx="1147.16" cy="401.35" fill="#8b9ad9"></circle><circle r="5" cx="1151.71" cy="540.83" fill="#8b9ad9"></circle><circle r="5" cx="1290.72" cy="-82.26" fill="#8b9ad9"></circle><circle r="5" cx="1275.64" cy="259.81" fill="#8b9ad9"></circle><circle r="5" cx="1256.01" cy="348.95" fill="#8b9ad9"></circle><circle r="5" cx="1279.72" cy="502.34" fill="#8b9ad9"></circle><circle r="5" cx="1276.78" cy="671.95" fill="#8b9ad9"></circle><circle r="5" cx="1415.46" cy="107.54" fill="#8b9ad9"></circle><circle r="5" cx="1428.98" cy="358.73" fill="#8b9ad9"></circle><circle r="5" cx="1400.54" cy="488.55" fill="#8b9ad9"></circle><circle r="5" cx="1432.43" cy="662.23" fill="#8b9ad9"></circle><circle r="5" cx="1611.67" cy="380.54" fill="#8b9ad9"></circle><circle r="5" cx="1582.01" cy="663.02" fill="#8b9ad9"></circle></g><defs><mask id="SvgjsMask1024"><rect width="1440" height="560" fill="#ffffff"></rect></mask><radialGradient id="SvgjsRadialGradient1025"><stop stop-color="#ffffff" offset="0.1"></stop><stop stop-color="#1735b3" offset="0.2"></stop><stop stop-color="rgba(23, 53, 179, 0)" offset="1"></stop></radialGradient></defs></svg>